<svg width="4524" height="765" viewBox="0 0 4524 765" fill="none" xmlns="http://www.w3.org/2000/svg">
<path fill-rule="evenodd" clip-rule="evenodd" d="M1791.79 84.107C1299.65 53.7837 410.973 699.107 345.553 764.514L316.631 622.793C382.05 557.387 1313.18 21.2944 1791.79 84.107Z" fill="#357DB7"/>
<path fill-rule="evenodd" clip-rule="evenodd" d="M355.008 527.582C320.12 497.064 246.698 351.608 1.10243 288.446L0 289.535C266.01 324.411 395.682 449.854 430.557 480.385L355.008 527.582Z" fill="#A2B2D6"/>
<path d="M2001 621C1966.33 621 1935 613.333 1907 598C1879.33 582.667 1857.5 561.5 1841.5 534.5C1825.83 507.167 1818 476.667 1818 443C1818 409.333 1825.83 379 1841.5 352C1857.5 324.667 1879.5 303.333 1907.5 288C1935.5 272.667 1966.83 265 2001.5 265C2027.5 265 2051.5 269.333 2073.5 278C2095.5 286.667 2114.17 299.333 2129.5 316L2106 339.5C2078.67 311.833 2044.17 298 2002.5 298C1974.83 298 1949.67 304.333 1927 317C1904.33 329.667 1886.5 347 1873.5 369C1860.83 391 1854.5 415.667 1854.5 443C1854.5 470.333 1860.83 495 1873.5 517C1886.5 539 1904.33 556.333 1927 569C1949.67 581.667 1974.83 588 2002.5 588C2044.5 588 2079 574 2106 546L2129.5 569.5C2114.17 586.167 2095.33 599 2073 608C2051 616.667 2027 621 2001 621ZM2296.66 620.5C2271.32 620.5 2248.49 614.833 2228.16 603.5C2207.82 591.833 2191.82 575.833 2180.16 555.5C2168.49 535.167 2162.66 512.167 2162.66 486.5C2162.66 460.833 2168.49 437.833 2180.16 417.5C2191.82 397.167 2207.82 381.333 2228.16 370C2248.49 358.667 2271.32 353 2296.66 353C2321.99 353 2344.82 358.667 2365.16 370C2385.49 381.333 2401.32 397.167 2412.66 417.5C2424.32 437.833 2430.16 460.833 2430.16 486.5C2430.16 512.167 2424.32 535.167 2412.66 555.5C2401.32 575.833 2385.49 591.833 2365.16 603.5C2344.82 614.833 2321.99 620.5 2296.66 620.5ZM2296.66 589C2315.32 589 2331.99 584.833 2346.66 576.5C2361.66 567.833 2373.32 555.667 2381.66 540C2389.99 524.333 2394.16 506.5 2394.16 486.5C2394.16 466.5 2389.99 448.667 2381.66 433C2373.32 417.333 2361.66 405.333 2346.66 397C2331.99 388.333 2315.32 384 2296.66 384C2277.99 384 2261.16 388.333 2246.16 397C2231.49 405.333 2219.82 417.333 2211.16 433C2202.82 448.667 2198.66 466.5 2198.66 486.5C2198.66 506.5 2202.82 524.333 2211.16 540C2219.82 555.667 2231.49 567.833 2246.16 576.5C2261.16 584.833 2277.99 589 2296.66 589ZM2830.63 353C2863.63 353 2889.47 362.5 2908.13 381.5C2927.13 400.5 2936.63 428.5 2936.63 465.5V618H2901.13V469C2901.13 441.667 2894.47 420.833 2881.13 406.5C2868.13 392.167 2849.63 385 2825.63 385C2798.3 385 2776.8 393.5 2761.13 410.5C2745.47 427.167 2737.63 450.333 2737.63 480V618H2702.13V469C2702.13 441.667 2695.47 420.833 2682.13 406.5C2669.13 392.167 2650.47 385 2626.13 385C2599.13 385 2577.63 393.5 2561.63 410.5C2545.97 427.167 2538.13 450.333 2538.13 480V618H2502.63V355H2536.63V403C2545.97 387 2558.97 374.667 2575.63 366C2592.3 357.333 2611.47 353 2633.13 353C2655.13 353 2674.13 357.667 2690.13 367C2706.47 376.333 2718.63 390.167 2726.63 408.5C2736.3 391.167 2750.13 377.667 2768.13 368C2786.47 358 2807.3 353 2830.63 353ZM3168.41 353C3193.07 353 3215.41 358.667 3235.41 370C3255.41 381 3271.07 396.667 3282.41 417C3293.74 437.333 3299.41 460.5 3299.41 486.5C3299.41 512.833 3293.74 536.167 3282.41 556.5C3271.07 576.833 3255.41 592.667 3235.41 604C3215.74 615 3193.41 620.5 3168.41 620.5C3147.07 620.5 3127.74 616.167 3110.41 607.5C3093.41 598.5 3079.41 585.5 3068.41 568.5V715H3032.91V355H3066.91V407C3077.57 389.667 3091.57 376.333 3108.91 367C3126.57 357.667 3146.41 353 3168.41 353ZM3165.91 589C3184.24 589 3200.91 584.833 3215.91 576.5C3230.91 567.833 3242.57 555.667 3250.91 540C3259.57 524.333 3263.91 506.5 3263.91 486.5C3263.91 466.5 3259.57 448.833 3250.91 433.5C3242.57 417.833 3230.91 405.667 3215.91 397C3200.91 388.333 3184.24 384 3165.91 384C3147.24 384 3130.41 388.333 3115.41 397C3100.74 405.667 3089.07 417.833 3080.41 433.5C3072.07 448.833 3067.91 466.5 3067.91 486.5C3067.91 506.5 3072.07 524.333 3080.41 540C3089.07 555.667 3100.74 567.833 3115.41 576.5C3130.41 584.833 3147.24 589 3165.91 589ZM3462.31 353C3496.64 353 3522.98 361.667 3541.31 379C3559.64 396 3568.81 421.333 3568.81 455V618H3534.81V577C3526.81 590.667 3514.98 601.333 3499.31 609C3483.98 616.667 3465.64 620.5 3444.31 620.5C3414.98 620.5 3391.64 613.5 3374.31 599.5C3356.98 585.5 3348.31 567 3348.31 544C3348.31 521.667 3356.31 503.667 3372.31 490C3388.64 476.333 3414.48 469.5 3449.81 469.5H3533.31V453.5C3533.31 430.833 3526.98 413.667 3514.31 402C3501.64 390 3483.14 384 3458.81 384C3442.14 384 3426.14 386.833 3410.81 392.5C3395.48 397.833 3382.31 405.333 3371.31 415L3355.31 388.5C3368.64 377.167 3384.64 368.5 3403.31 362.5C3421.98 356.167 3441.64 353 3462.31 353ZM3449.81 592.5C3469.81 592.5 3486.98 588 3501.31 579C3515.64 569.667 3526.31 556.333 3533.31 539V496H3450.81C3405.81 496 3383.31 511.667 3383.31 543C3383.31 558.333 3389.14 570.5 3400.81 579.5C3412.48 588.167 3428.81 592.5 3449.81 592.5ZM3699.23 406.5C3707.56 388.833 3719.9 375.5 3736.23 366.5C3752.9 357.5 3773.4 353 3797.73 353V387.5L3789.23 387C3761.56 387 3739.9 395.5 3724.23 412.5C3708.56 429.5 3700.73 453.333 3700.73 484V618H3665.23V355H3699.23V406.5ZM4088.57 497.5H3868.57C3870.57 524.833 3881.07 547 3900.07 564C3919.07 580.667 3943.07 589 3972.07 589C3988.4 589 4003.4 586.167 4017.07 580.5C4030.73 574.5 4042.57 565.833 4052.57 554.5L4072.57 577.5C4060.9 591.5 4046.23 602.167 4028.57 609.5C4011.23 616.833 3992.07 620.5 3971.07 620.5C3944.07 620.5 3920.07 614.833 3899.07 603.5C3878.4 591.833 3862.23 575.833 3850.57 555.5C3838.9 535.167 3833.07 512.167 3833.07 486.5C3833.07 460.833 3838.57 437.833 3849.57 417.5C3860.9 397.167 3876.23 381.333 3895.57 370C3915.23 358.667 3937.23 353 3961.57 353C3985.9 353 4007.73 358.667 4027.07 370C4046.4 381.333 4061.57 397.167 4072.57 417.5C4083.57 437.5 4089.07 460.5 4089.07 486.5L4088.57 497.5ZM3961.57 383.5C3936.23 383.5 3914.9 391.667 3897.57 408C3880.57 424 3870.9 445 3868.57 471H4055.07C4052.73 445 4042.9 424 4025.57 408C4008.57 391.667 3987.23 383.5 3961.57 383.5Z" fill="#357DB7"/>
<path d="M4285.64 260.568V279H4144.23V264.312L4228.04 182.232C4238.6 171.864 4245.7 162.936 4249.35 155.448C4253.19 147.768 4255.11 140.088 4255.11 132.408C4255.11 120.504 4250.98 111.288 4242.73 104.76C4234.66 98.04 4223.05 94.68 4207.88 94.68C4184.26 94.68 4165.93 102.168 4152.87 117.144L4138.18 104.472C4146.06 95.256 4156.04 88.152 4168.14 83.16C4180.42 78.168 4194.25 75.672 4209.61 75.672C4230.15 75.672 4246.38 80.568 4258.28 90.36C4270.38 99.96 4276.42 113.208 4276.42 130.104C4276.42 140.472 4274.12 150.456 4269.51 160.056C4264.9 169.656 4256.17 180.696 4243.3 193.176L4174.76 260.568H4285.64ZM4476.27 226.008H4435.95V279H4415.22V226.008H4301.46V211.032L4408.31 77.4H4431.35L4328.24 207.576H4415.79V160.92H4435.95V207.576H4476.27V226.008Z" fill="#A2B2D6"/>
</svg>
