<svg width="44" height="44" viewBox="0 0 44 44" fill="none" xmlns="http://www.w3.org/2000/svg">
<g clip-path="url(#clip0_6_349)">
<path d="M36.9999 37V32.8889C36.9999 31.2534 36.3502 29.6849 35.1938 28.5284C34.0373 27.3719 32.4688 26.7222 30.8333 26.7222H14.3888C12.7533 26.7222 11.1848 27.3719 10.0283 28.5284C8.87187 29.6849 8.22217 31.2534 8.22217 32.8889V37H36.9999Z" fill="#CCD6DD"/>
<path d="M18.5 27.75L22.6111 31.8611L26.7222 27.75V22.6111H18.5V27.75Z" fill="#FFDC5D"/>
<path d="M18.5 24.6667C19.7498 26.0788 20.9204 26.4334 22.607 26.4334C24.2915 26.4334 25.4714 26.0778 26.7222 24.6667V20.5556H18.5V24.6667Z" fill="#F9CA55"/>
<path d="M15.873 14.3231C15.873 15.8113 15.1186 17.0179 14.1884 17.0179C13.2583 17.0179 12.5039 15.8113 12.5039 14.3231C12.5039 12.8349 13.2583 11.6273 14.1884 11.6273C15.1186 11.6262 15.873 12.8339 15.873 14.3231ZM32.7172 14.3231C32.7172 15.8113 31.9639 17.0179 31.0327 17.0179C30.1025 17.0179 29.3482 15.8113 29.3482 14.3231C29.3482 12.8349 30.1015 11.6273 31.0327 11.6273C31.9639 11.6262 32.7172 12.8339 32.7172 14.3231Z" fill="#FFDC5D"/>
<path d="M13.8513 15.3756C13.8513 9.63131 17.7733 4.97342 22.6111 4.97342C27.4488 4.97342 31.3698 9.63131 31.3698 15.3756C31.3698 21.1198 27.4488 25.7777 22.6111 25.7777C17.7743 25.7767 13.8513 21.1198 13.8513 15.3756Z" fill="#FFDC5D"/>
<path d="M22.6111 22.4076C19.7806 22.4076 18.9111 21.683 18.7662 21.5361C18.7021 21.4752 18.6506 21.4023 18.6146 21.3215C18.5787 21.2407 18.559 21.1537 18.5567 21.0653C18.5521 20.8868 18.6186 20.7138 18.7415 20.5843C18.8645 20.4549 19.0338 20.3795 19.2123 20.3749C19.3908 20.3703 19.5638 20.4367 19.6932 20.5597C19.7467 20.5977 20.4343 21.0602 22.6111 21.0602C24.8722 21.0602 25.5259 20.5617 25.532 20.5566C25.5941 20.495 25.6679 20.4465 25.7491 20.4139C25.8302 20.3812 25.917 20.3652 26.0045 20.3666C26.0919 20.368 26.1782 20.387 26.2582 20.4222C26.3382 20.4575 26.4104 20.5084 26.4704 20.572C26.5949 20.7025 26.6632 20.8766 26.6605 21.057C26.6578 21.2373 26.5844 21.4094 26.456 21.5361C26.3111 21.683 25.4416 22.4076 22.6111 22.4076Z" fill="#C1694F"/>
<path d="M22.6111 1.52111C28.416 1.52111 32.0441 5.80489 32.0441 9.37436C32.0441 12.9438 31.3185 14.3724 30.5928 12.9438L29.1416 10.0887C29.1416 10.0887 24.789 10.0887 23.3378 8.66005C23.3378 8.66005 25.5146 12.9438 21.1609 8.66005C21.1609 8.66005 21.8865 11.5162 17.5329 7.94678C17.5329 7.94678 15.356 9.37436 14.6304 12.9438C14.429 13.9346 13.1792 12.9438 13.1792 9.37436C13.1782 5.80489 16.0806 1.52111 22.6111 1.52111Z" fill="#FFAC33"/>
<path d="M18.4999 15.4167C17.9347 15.4167 17.4722 14.9542 17.4722 14.3889V13.3611C17.4722 12.7958 17.9347 12.3333 18.4999 12.3333C19.0652 12.3333 19.5277 12.7958 19.5277 13.3611V14.3889C19.5277 14.9542 19.0652 15.4167 18.4999 15.4167ZM26.7222 15.4167C26.1569 15.4167 25.6944 14.9542 25.6944 14.3889V13.3611C25.6944 12.7958 26.1569 12.3333 26.7222 12.3333C27.2874 12.3333 27.7499 12.7958 27.7499 13.3611V14.3889C27.7499 14.9542 27.2874 15.4167 26.7222 15.4167Z" fill="#662113"/>
<path d="M23.382 18.2431H21.8403C21.4158 18.2431 21.0695 17.8967 21.0695 17.4722C21.0695 17.0477 21.4158 16.7014 21.8403 16.7014H23.382C23.8064 16.7014 24.1528 17.0477 24.1528 17.4722C24.1528 17.8967 23.8064 18.2431 23.382 18.2431Z" fill="#C1694F"/>
<path d="M19.5884 37L18.5 27.5249C18.5 27.5249 19.9492 29.2156 22.6111 29.2156C25.2731 29.2156 26.9473 27.5249 26.9473 27.5249L25.6903 37H19.5884Z" fill="#66757F"/>
<path d="M18.5832 25.9514C19.1649 26.5331 21.5833 37 21.5833 37H18.3396L16.5883 34.3668L18.3396 31.4531L16.2666 30.8015L16.5277 26.7346C16.5277 26.7346 18.3047 25.6729 18.5832 25.9514ZM26.6389 25.9514C26.0572 26.5331 23.6389 37 23.6389 37H26.8825L28.6339 34.3668L26.8825 31.4531L28.9555 30.8015L28.6945 26.7346C28.6945 26.7346 26.9175 25.6729 26.6389 25.9514Z" fill="#F5F8FA"/>
<path opacity="0.4" d="M15.1628 11.0486H30.0656V16.4444H15.1628V11.0486Z" fill="white"/>
<path d="M29.8056 10.2778H15.4167C14.3889 10.2778 14.3889 11.3056 14.3889 11.3056V15.4167C14.3889 16.9183 16.7867 17.4722 18.5 17.4722C20.2133 17.4722 21.1712 16.4444 22.6111 16.4444C24.0511 16.4444 25.0089 17.4722 26.7222 17.4722C28.4356 17.4722 30.8334 16.9183 30.8334 15.4167V11.3056C30.8334 10.2778 29.8056 10.2778 29.8056 10.2778ZM29.8056 14.3889C29.8056 15.7507 28.9299 16.4444 26.7222 16.4444C25.1405 16.4444 23.8404 15.4167 22.6111 15.4167C21.3819 15.4167 20.0818 16.4444 18.5 16.4444C16.2924 16.4444 15.4167 15.7507 15.4167 14.3889V11.3056H29.8056V14.3889Z" fill="#F5F8FA"/>
<path d="M7.1944 12.3333C7.76203 12.3333 8.22218 11.8732 8.22218 11.3056C8.22218 10.7379 7.76203 10.2778 7.1944 10.2778C6.62678 10.2778 6.16663 10.7379 6.16663 11.3056C6.16663 11.8732 6.62678 12.3333 7.1944 12.3333Z" fill="#9266CC"/>
<path d="M9.24995 17.4722C9.81757 17.4722 10.2777 17.0121 10.2777 16.4444C10.2777 15.8768 9.81757 15.4167 9.24995 15.4167C8.68232 15.4167 8.22217 15.8768 8.22217 16.4444C8.22217 17.0121 8.68232 17.4722 9.24995 17.4722Z" fill="#9266CC"/>
<path d="M5.65275 16.4444C6.50419 16.4444 7.19442 15.7542 7.19442 14.9028C7.19442 14.0513 6.50419 13.3611 5.65275 13.3611C4.80131 13.3611 4.11108 14.0513 4.11108 14.9028C4.11108 15.7542 4.80131 16.4444 5.65275 16.4444Z" fill="#9266CC"/>
<path d="M10.2778 18.5H5.13889C5.13889 18.5 3.08333 18.5 3.08333 20.5556C3.08333 22.6111 5.13889 22.6111 5.13889 22.6111V27.75L1.02778 32.8889C0.12025 34.0236 0 34.7605 0 34.9444C0 37 2.05556 37 2.05556 37H13.3611C13.3611 37 15.4167 37 15.4167 34.9444C15.4167 34.8067 15.5739 34.3699 14.3889 32.8889L10.2778 27.75V22.6111C10.2778 22.6111 12.3333 22.6111 12.3333 20.5556C12.3333 18.5 10.2778 18.5 10.2778 18.5Z" fill="#A8BCCC"/>
<path d="M9.24997 28.1108V21.5833H10.2778C10.7392 21.571 11.3055 21.3839 11.3055 20.5556C11.3055 19.7303 10.7433 19.5411 10.2695 19.5278H5.13886C4.67636 19.5401 4.11108 19.7272 4.11108 20.5556C4.11108 21.3839 4.67636 21.571 5.1512 21.5833L6.15328 21.608L6.16664 28.1108L4.22003 30.5445L7.70831 34.1418L11.1966 30.5445L9.24997 28.1108Z" fill="#E1E8ED"/>
<path d="M1.02673 34.9794C1.02776 35.7728 1.59304 35.9599 2.06787 35.9722H13.3611C13.8226 35.9599 14.3889 35.7728 14.3889 34.9444V34.9023L14.395 34.818C14.395 34.8149 14.3385 34.4717 13.5862 33.5312L11.1966 30.5445H4.22004L1.83046 33.5312C1.09148 34.4552 1.02673 34.9742 1.02673 34.9794Z" fill="#9266CC"/>
</g>
<defs>
<clipPath id="clip0_6_349">
<rect width="37" height="37" fill="white"/>
</clipPath>
</defs>
</svg>
